<?xml version="1.0" encoding="utf-8"?>
<!-- Generator: Adobe Illustrator 15.0.0, SVG Export Plug-In . SVG Version: 6.00 Build 0)  -->
<!DOCTYPE svg PUBLIC "-//W3C//DTD SVG 1.1//EN" "http://www.w3.org/Graphics/SVG/1.1/DTD/svg11.dtd">
<svg version="1.1" id="Layer_1" xmlns="http://www.w3.org/2000/svg" xmlns:xlink="http://www.w3.org/1999/xlink" x="0px" y="0px"
	 width="26px" height="26px" viewBox="0 0 26 26" enable-background="new 0 0 26 26" xml:space="preserve">
<g>
	<path d="M21.73,20.698l-3.753-4.232l0.012-0.008l-0.045-0.029l-0.883-0.996c-0.085-0.098-0.187-0.173-0.293-0.237
		c-0.497-0.77-1.006-1.988-1.036-3.751c0.148-0.53,0.219-1.099,0.204-1.698c-0.007-0.276-0.074-0.63-0.163-0.992
		c-0.215,0.116-0.444,0.201-0.681,0.264c0.286,1.721-0.166,3.359-1.383,4.341c-2.029,1.643-5.399,0.84-7.526-1.791
		S3.976,5.475,6.005,3.834c1.583-1.28,3.98-1.068,5.97,0.334c0.06-0.073,0.117-0.148,0.185-0.216
		c0.088-0.089,0.183-0.167,0.281-0.243c-0.812-0.578-1.467-0.884-1.467-0.884s-1.298-0.502-2.31-0.463
		c-1.182,0-2.255,0.375-3.101,1.082C3.25,5.381,3.315,9.281,5.706,12.136c1.333,1.589,3.169,2.578,4.986,2.719l-0.001,0.029
		c0.026,0.002,2.333,0.13,4.392,2.057c0.033,0.051,0.067,0.103,0.109,0.148l4.668,5.27c0.456,0.516,1.246,0.563,1.765,0.104
		C22.142,22.006,22.189,21.216,21.73,20.698z M15.299,15.326c-0.248,0.218-0.385,0.513-0.413,0.817
		c-0.912-0.728-1.825-1.152-2.566-1.396c0.716-0.166,1.367-0.482,1.919-0.945c0.45-0.376,0.813-0.832,1.09-1.345
		c0.132,1.078,0.438,1.92,0.778,2.56C15.818,15.021,15.531,15.121,15.299,15.326z"/>
	<path d="M11.651,6.093c0.59,0.069,1.216,0.37,1.73,0.884c0.515,0.515,0.816,1.143,0.884,1.731c0.538-0.049,1.062-0.282,1.473-0.693
		c0.412-0.411,0.643-0.935,0.692-1.472c-0.588-0.069-1.215-0.37-1.73-0.884c-0.514-0.515-0.815-1.142-0.884-1.731
		c-0.538,0.05-1.061,0.281-1.473,0.693C11.933,5.033,11.702,5.556,11.651,6.093z"/>
	<path d="M16.439,6.245c-0.017-0.589-0.25-1.174-0.7-1.625c-0.45-0.449-1.035-0.683-1.626-0.702c0.066,0.516,0.34,1.07,0.799,1.529
		C15.371,5.907,15.925,6.179,16.439,6.245z"/>
	<path d="M11.643,6.391c0.018,0.59,0.25,1.175,0.701,1.625c0.45,0.45,1.035,0.685,1.624,0.701c-0.065-0.514-0.339-1.068-0.798-1.527
		C12.712,6.731,12.157,6.458,11.643,6.391z"/>
</g>
</svg>
