<?xml version="1.0" encoding="iso-8859-1"?>
<!-- Generator: Adobe Illustrator 17.0.2, SVG Export Plug-In . SVG Version: 6.00 Build 0)  -->
<!DOCTYPE svg PUBLIC "-//W3C//DTD SVG 1.1//EN" "http://www.w3.org/Graphics/SVG/1.1/DTD/svg11.dtd">
<svg version="1.1" id="Layer_1" xmlns="http://www.w3.org/2000/svg" xmlns:xlink="http://www.w3.org/1999/xlink" x="0px" y="0px"
	 width="64px" height="64px" viewBox="0 0 64 64" style="enable-background:new 0 0 64 64;" xml:space="preserve">
<g>
	<path d="M6.299,42.487c0.148,0.012,0.582,0.042,1.186,0.042c1.537,0,4.16-0.209,6.016-1.371c1.471,0.922,3.41,1.244,4.926,1.334
		c0.013,0.001,0.025,0.006,0.039,0.007c0.148,0.012,0.582,0.042,1.187,0.042c1.536,0,4.16-0.209,6.015-1.371
		c1.855,1.162,4.479,1.371,6.016,1.371c0.604,0,1.037-0.029,1.186-0.042c0.03-0.002,0.057-0.012,0.087-0.016
		c1.51-0.093,3.422-0.418,4.879-1.331c1.472,0.923,3.413,1.245,4.929,1.334c0.012,0.001,0.023,0.005,0.035,0.006
		c0.149,0.012,0.584,0.042,1.188,0.042c1.536,0,4.159-0.209,6.014-1.371c1.854,1.162,4.477,1.371,6.014,1.371
		c0.604,0,1.039-0.029,1.188-0.042c0.825-0.065,1.441-0.788,1.376-1.614c-0.065-0.827-0.777-1.446-1.614-1.376
		c-1.459,0.114-4.81-0.031-5.818-1.224c-0.029-0.034-0.062-0.059-0.093-0.09c-0.029-0.028-0.052-0.06-0.083-0.086
		c-0.007-0.006-0.014-0.009-0.021-0.014c-0.044-0.036-0.091-0.064-0.137-0.094c-0.038-0.024-0.074-0.052-0.114-0.073
		c-0.041-0.022-0.085-0.036-0.128-0.054c-0.048-0.02-0.096-0.042-0.146-0.057c-0.038-0.011-0.077-0.016-0.116-0.024
		c-0.056-0.012-0.111-0.025-0.168-0.03c-0.039-0.004-0.079-0.001-0.119-0.001c-0.056-0.001-0.111-0.003-0.167,0.002
		c-0.042,0.004-0.082,0.015-0.124,0.022c-0.053,0.01-0.107,0.017-0.159,0.033c-0.039,0.012-0.076,0.03-0.114,0.045
		c-0.053,0.021-0.106,0.04-0.157,0.067c-0.034,0.018-0.065,0.042-0.098,0.062c-0.052,0.033-0.103,0.065-0.152,0.104
		c-0.006,0.005-0.013,0.008-0.02,0.013c-0.03,0.026-0.053,0.056-0.081,0.084c-0.032,0.031-0.066,0.058-0.096,0.092
		c-0.633,0.748-2.277,1.109-3.848,1.217c-0.069-0.004-0.137-0.01-0.207-0.004c-0.353,0.027-0.819,0.039-1.331,0.025
		c-0.04-0.001-0.081-0.002-0.121-0.004c-1.597-0.055-3.621-0.362-4.369-1.245c-0.028-0.033-0.061-0.058-0.091-0.089
		c-0.029-0.029-0.053-0.061-0.084-0.087c-0.006-0.005-0.014-0.009-0.02-0.014c-0.046-0.038-0.095-0.068-0.144-0.099
		c-0.036-0.023-0.069-0.048-0.106-0.068c-0.044-0.023-0.09-0.039-0.136-0.058c-0.046-0.018-0.091-0.04-0.138-0.054
		c-0.039-0.011-0.079-0.016-0.118-0.025c-0.055-0.011-0.11-0.025-0.167-0.03c-0.037-0.003-0.075-0.001-0.112-0.001
		c-0.058-0.001-0.116-0.004-0.174,0.002c-0.039,0.004-0.077,0.014-0.116,0.021c-0.056,0.01-0.112,0.018-0.167,0.035
		c-0.038,0.011-0.074,0.029-0.111,0.043c-0.054,0.021-0.108,0.04-0.159,0.067c-0.034,0.018-0.066,0.042-0.099,0.063
		c-0.051,0.032-0.103,0.064-0.151,0.103c-0.006,0.005-0.013,0.008-0.019,0.013c-0.03,0.025-0.052,0.055-0.079,0.082
		c-0.032,0.032-0.068,0.059-0.097,0.094c-0.915,1.083-3.957,1.369-5.82,1.223c-0.092-0.008-0.181-0.004-0.27,0.005
		c-1.552-0.114-3.162-0.475-3.785-1.212c-0.029-0.034-0.064-0.061-0.095-0.092c-0.028-0.028-0.051-0.059-0.082-0.085
		c-0.007-0.006-0.014-0.009-0.021-0.014c-0.043-0.035-0.088-0.062-0.133-0.092c-0.04-0.026-0.078-0.054-0.12-0.076
		c-0.037-0.019-0.076-0.032-0.114-0.048c-0.053-0.022-0.106-0.047-0.161-0.063c-0.03-0.009-0.061-0.012-0.092-0.019
		c-0.064-0.014-0.127-0.029-0.192-0.035c-0.03-0.003-0.061,0-0.091-0.001c-0.065-0.002-0.13-0.004-0.194,0.002
		c-0.035,0.003-0.069,0.013-0.104,0.019c-0.06,0.01-0.12,0.019-0.178,0.037c-0.035,0.011-0.069,0.027-0.104,0.04
		c-0.056,0.021-0.113,0.042-0.167,0.071c-0.033,0.017-0.063,0.041-0.095,0.06c-0.052,0.033-0.104,0.065-0.153,0.105
		c-0.006,0.005-0.014,0.008-0.02,0.014c-0.031,0.027-0.055,0.058-0.084,0.087c-0.03,0.03-0.064,0.056-0.092,0.089
		c-0.636,0.751-2.292,1.112-3.87,1.219c-0.062-0.004-0.123-0.01-0.187-0.006c-0.441,0.035-0.95,0.043-1.479,0.024
		c-0.064-0.002-0.127-0.005-0.192-0.009c-1.657-0.08-3.477-0.444-4.149-1.239c-0.029-0.035-0.064-0.061-0.096-0.093
		c-0.028-0.027-0.051-0.058-0.081-0.084c-0.006-0.005-0.014-0.009-0.02-0.014c-0.045-0.037-0.093-0.066-0.141-0.097
		c-0.037-0.024-0.072-0.05-0.111-0.07c-0.042-0.022-0.087-0.038-0.131-0.056c-0.047-0.019-0.094-0.041-0.142-0.055
		c-0.039-0.011-0.078-0.016-0.118-0.024c-0.055-0.011-0.11-0.025-0.166-0.03c-0.039-0.004-0.078-0.001-0.117-0.001
		c-0.057-0.001-0.113-0.003-0.17,0.002c-0.04,0.004-0.079,0.014-0.118,0.021c-0.055,0.01-0.11,0.018-0.164,0.034
		c-0.037,0.011-0.073,0.029-0.11,0.043c-0.055,0.021-0.109,0.041-0.162,0.069c-0.033,0.017-0.062,0.04-0.094,0.06
		c-0.053,0.033-0.106,0.066-0.155,0.107c-0.006,0.005-0.013,0.008-0.019,0.013c-0.029,0.025-0.051,0.054-0.078,0.081
		c-0.033,0.032-0.068,0.06-0.099,0.095c-0.916,1.083-3.959,1.37-5.82,1.223c-0.816-0.062-1.548,0.553-1.611,1.379
		C4.858,41.7,5.474,42.421,6.299,42.487z"/>
	<path d="M6.149,14.721c1.866,0.562,5.245,1.952,6.373,3.283c0.021,0.025,0.047,0.042,0.069,0.065
		c0.036,0.037,0.067,0.077,0.107,0.111c0.008,0.007,0.018,0.008,0.026,0.015c0.124,0.101,0.259,0.177,0.401,0.232
		c0.029,0.011,0.06,0.02,0.09,0.029c0.147,0.046,0.297,0.078,0.448,0.078c0.001,0,0.002,0.001,0.003,0.001c0,0,0.001,0,0.001,0
		s0.001,0,0.001,0c0.001,0,0.002-0.001,0.003-0.001c0.151,0,0.301-0.032,0.448-0.078c0.031-0.01,0.061-0.018,0.091-0.03
		c0.141-0.055,0.277-0.131,0.401-0.232c0.008-0.006,0.018-0.008,0.026-0.015c0.039-0.033,0.069-0.071,0.103-0.107
		c0.024-0.024,0.051-0.043,0.074-0.07c1.122-1.327,4.504-2.718,6.371-3.283c0.793-0.24,1.241-1.077,1.002-1.87
		c-0.239-0.792-1.071-1.243-1.869-1.002c-0.491,0.148-4.254,1.325-6.65,3.159c-2.395-1.834-6.159-3.011-6.65-3.159
		c-0.793-0.24-1.63,0.209-1.87,1.003C4.907,13.645,5.356,14.481,6.149,14.721z"/>
	<path d="M24.316,20.849c-0.491,0.148-4.254,1.325-6.65,3.159c-2.395-1.834-6.159-3.011-6.65-3.159
		c-0.794-0.239-1.63,0.209-1.87,1.003c-0.239,0.793,0.21,1.63,1.003,1.869c1.866,0.562,5.245,1.952,6.373,3.283
		c0.021,0.025,0.047,0.042,0.069,0.065c0.036,0.037,0.067,0.077,0.107,0.111c0.008,0.007,0.018,0.008,0.026,0.015
		c0.124,0.101,0.259,0.177,0.401,0.232c0.029,0.011,0.06,0.02,0.09,0.029c0.147,0.046,0.297,0.078,0.448,0.078
		c0.001,0,0.002,0.001,0.003,0.001c0,0,0.001,0,0.001,0s0.001,0,0.001,0c0.001,0,0.002-0.001,0.003-0.001
		c0.151,0,0.301-0.032,0.448-0.078c0.031-0.01,0.061-0.018,0.091-0.03c0.141-0.055,0.277-0.131,0.401-0.232
		c0.008-0.006,0.018-0.008,0.026-0.015c0.039-0.033,0.069-0.071,0.103-0.107c0.024-0.024,0.051-0.043,0.074-0.07
		c1.122-1.327,4.504-2.718,6.371-3.283c0.793-0.24,1.241-1.077,1.002-1.87C25.946,21.059,25.114,20.608,24.316,20.849z"/>
	<path d="M56.964,46.502c-1.459,0.113-4.81-0.031-5.818-1.224c-0.029-0.034-0.063-0.06-0.094-0.091
		c-0.028-0.028-0.052-0.059-0.083-0.086c-0.006-0.005-0.014-0.009-0.02-0.014c-0.045-0.037-0.093-0.066-0.14-0.096
		c-0.037-0.024-0.073-0.051-0.111-0.071c-0.043-0.023-0.088-0.038-0.132-0.056c-0.047-0.019-0.093-0.041-0.141-0.055
		c-0.039-0.012-0.079-0.016-0.119-0.025c-0.055-0.011-0.109-0.025-0.165-0.03c-0.039-0.004-0.078-0.001-0.118-0.001
		c-0.056-0.001-0.112-0.003-0.168,0.002c-0.041,0.004-0.08,0.015-0.12,0.022c-0.055,0.01-0.109,0.018-0.163,0.034
		c-0.038,0.011-0.073,0.029-0.11,0.043c-0.054,0.021-0.109,0.041-0.162,0.069c-0.033,0.018-0.063,0.041-0.095,0.061
		c-0.052,0.033-0.105,0.065-0.154,0.105c-0.006,0.005-0.013,0.008-0.02,0.013c-0.03,0.026-0.053,0.056-0.081,0.084
		c-0.032,0.031-0.066,0.058-0.096,0.092c-0.628,0.743-2.254,1.105-3.815,1.216c-0.079-0.006-0.159-0.01-0.24-0.003
		c-0.348,0.027-0.806,0.038-1.31,0.026c-0.058-0.002-0.118-0.003-0.174-0.006c-1.592-0.057-3.594-0.366-4.337-1.244
		c-0.028-0.033-0.062-0.059-0.092-0.089c-0.029-0.028-0.052-0.06-0.084-0.086c-0.006-0.005-0.013-0.008-0.02-0.014
		c-0.047-0.039-0.097-0.07-0.148-0.101c-0.034-0.022-0.067-0.047-0.103-0.065c-0.046-0.024-0.095-0.041-0.143-0.061
		c-0.043-0.017-0.086-0.038-0.13-0.051c-0.043-0.013-0.086-0.018-0.13-0.027c-0.052-0.01-0.103-0.023-0.155-0.028
		c-0.042-0.004-0.084-0.001-0.127-0.002c-0.053-0.001-0.107-0.003-0.16,0.002c-0.043,0.004-0.086,0.015-0.128,0.023
		c-0.052,0.01-0.104,0.017-0.155,0.032c-0.041,0.012-0.08,0.031-0.119,0.046c-0.051,0.02-0.103,0.038-0.152,0.064
		c-0.036,0.019-0.068,0.044-0.103,0.066c-0.05,0.032-0.1,0.063-0.147,0.101c-0.006,0.005-0.014,0.008-0.02,0.014
		c-0.03,0.025-0.053,0.056-0.08,0.083c-0.032,0.032-0.067,0.058-0.097,0.093c-0.915,1.083-3.957,1.369-5.82,1.223
		c-0.088-0.007-0.174-0.002-0.259,0.006c-1.555-0.113-3.171-0.474-3.795-1.213c-0.029-0.035-0.064-0.061-0.096-0.092
		c-0.028-0.027-0.051-0.058-0.081-0.084c-0.006-0.005-0.014-0.009-0.02-0.014c-0.044-0.036-0.091-0.065-0.138-0.095
		c-0.038-0.025-0.075-0.052-0.114-0.073c-0.04-0.021-0.081-0.035-0.122-0.052c-0.05-0.021-0.1-0.044-0.152-0.059
		c-0.033-0.01-0.067-0.014-0.1-0.021c-0.061-0.013-0.122-0.028-0.184-0.033c-0.031-0.003-0.062,0-0.093-0.001
		c-0.064-0.002-0.129-0.004-0.193,0.002c-0.033,0.003-0.065,0.012-0.097,0.018c-0.062,0.01-0.124,0.02-0.185,0.038
		c-0.033,0.01-0.064,0.025-0.097,0.038c-0.059,0.022-0.118,0.044-0.174,0.074c-0.031,0.016-0.059,0.038-0.089,0.057
		c-0.054,0.034-0.108,0.067-0.158,0.108c-0.006,0.005-0.013,0.008-0.019,0.013c-0.031,0.026-0.055,0.058-0.083,0.086
		c-0.031,0.031-0.064,0.056-0.093,0.09c-0.634,0.748-2.281,1.11-3.854,1.218c-0.067-0.004-0.134-0.011-0.202-0.005
		c-0.442,0.035-0.953,0.043-1.483,0.024c-0.062-0.002-0.123-0.005-0.186-0.008c-1.658-0.08-3.479-0.443-4.151-1.239
		c-0.029-0.034-0.063-0.06-0.094-0.091c-0.028-0.028-0.052-0.059-0.083-0.086c-0.007-0.006-0.014-0.009-0.021-0.015
		c-0.042-0.035-0.088-0.062-0.132-0.091c-0.04-0.026-0.079-0.055-0.121-0.077c-0.037-0.02-0.077-0.033-0.116-0.049
		c-0.052-0.022-0.104-0.046-0.159-0.062c-0.032-0.009-0.066-0.013-0.098-0.02c-0.061-0.014-0.123-0.028-0.185-0.033
		c-0.033-0.003-0.066,0-0.099-0.001c-0.062-0.002-0.124-0.004-0.186,0.002c-0.037,0.004-0.073,0.013-0.109,0.02
		c-0.058,0.01-0.116,0.019-0.173,0.036c-0.036,0.011-0.071,0.028-0.107,0.042c-0.055,0.021-0.111,0.041-0.164,0.07
		c-0.033,0.017-0.063,0.04-0.094,0.06c-0.052,0.033-0.105,0.065-0.154,0.106c-0.006,0.005-0.013,0.008-0.019,0.013
		c-0.03,0.025-0.052,0.055-0.079,0.082c-0.032,0.032-0.068,0.059-0.098,0.095c-0.916,1.083-3.959,1.37-5.82,1.223
		c-0.816-0.068-1.548,0.553-1.611,1.379c-0.064,0.825,0.551,1.546,1.376,1.612c0.148,0.012,0.582,0.042,1.186,0.042
		c1.537,0,4.16-0.209,6.016-1.371c1.471,0.922,3.41,1.244,4.926,1.334c0.013,0.001,0.025,0.006,0.039,0.007
		c0.148,0.012,0.582,0.042,1.187,0.042c1.536,0,4.16-0.209,6.015-1.371c1.855,1.162,4.479,1.371,6.016,1.371
		c0.604,0,1.037-0.029,1.186-0.042c0.03-0.002,0.057-0.012,0.087-0.016c1.51-0.093,3.422-0.418,4.879-1.331
		c1.472,0.923,3.413,1.245,4.929,1.334c0.012,0.001,0.023,0.005,0.035,0.006c0.149,0.012,0.584,0.042,1.188,0.042
		c1.536,0,4.159-0.209,6.014-1.371c1.854,1.162,4.477,1.371,6.014,1.371c0.604,0,1.039-0.029,1.188-0.042
		c0.825-0.065,1.441-0.788,1.376-1.614C58.513,47.052,57.801,46.435,56.964,46.502z"/>
	<path d="M56.964,53.502c-1.459,0.115-4.81-0.031-5.818-1.224c-0.029-0.034-0.063-0.06-0.094-0.091
		c-0.028-0.028-0.052-0.059-0.082-0.085c-0.006-0.005-0.014-0.009-0.02-0.014c-0.045-0.037-0.093-0.066-0.141-0.097
		c-0.037-0.024-0.072-0.051-0.111-0.071c-0.043-0.023-0.088-0.038-0.132-0.056c-0.047-0.019-0.093-0.041-0.141-0.055
		c-0.04-0.012-0.081-0.017-0.121-0.025c-0.054-0.011-0.107-0.024-0.162-0.029c-0.042-0.004-0.083-0.001-0.125-0.001
		c-0.054-0.001-0.107-0.003-0.161,0.002c-0.044,0.004-0.088,0.016-0.132,0.024c-0.05,0.009-0.101,0.016-0.15,0.031
		c-0.042,0.012-0.081,0.031-0.121,0.047c-0.051,0.02-0.102,0.038-0.151,0.064c-0.035,0.018-0.067,0.043-0.101,0.064
		c-0.05,0.032-0.101,0.063-0.149,0.102c-0.006,0.005-0.014,0.008-0.02,0.014c-0.031,0.026-0.054,0.057-0.082,0.085
		c-0.031,0.031-0.066,0.057-0.095,0.092c-0.629,0.744-2.259,1.106-3.823,1.216c-0.077-0.005-0.154-0.01-0.233-0.003
		c-0.351,0.027-0.813,0.039-1.322,0.025c-0.048-0.002-0.097-0.003-0.144-0.005c-1.595-0.056-3.609-0.364-4.355-1.245
		c-0.028-0.034-0.062-0.06-0.093-0.09c-0.028-0.028-0.052-0.059-0.083-0.086c-0.006-0.005-0.013-0.008-0.019-0.013
		c-0.049-0.04-0.101-0.072-0.153-0.105c-0.032-0.02-0.063-0.044-0.096-0.061c-0.05-0.026-0.102-0.045-0.153-0.065
		c-0.04-0.016-0.079-0.035-0.12-0.047c-0.047-0.014-0.094-0.02-0.142-0.029c-0.048-0.009-0.095-0.021-0.143-0.026
		c-0.045-0.004-0.09-0.001-0.135-0.002c-0.051,0-0.102-0.003-0.153,0.002c-0.044,0.004-0.087,0.016-0.131,0.024
		c-0.051,0.009-0.102,0.017-0.152,0.032c-0.041,0.012-0.08,0.031-0.12,0.047c-0.051,0.02-0.103,0.038-0.152,0.064
		c-0.035,0.019-0.068,0.043-0.102,0.065c-0.05,0.032-0.1,0.063-0.147,0.101c-0.006,0.005-0.014,0.008-0.02,0.014
		c-0.03,0.026-0.053,0.056-0.081,0.083c-0.032,0.031-0.067,0.058-0.096,0.093c-0.915,1.083-3.957,1.369-5.82,1.223
		c-0.093-0.008-0.185-0.004-0.275,0.005c-1.55-0.114-3.157-0.475-3.779-1.212c-0.029-0.035-0.064-0.061-0.096-0.092
		c-0.028-0.027-0.051-0.058-0.081-0.084c-0.006-0.005-0.014-0.009-0.02-0.014c-0.044-0.036-0.091-0.064-0.137-0.094
		c-0.038-0.025-0.075-0.052-0.115-0.073c-0.039-0.021-0.081-0.035-0.121-0.052c-0.051-0.021-0.101-0.044-0.153-0.059
		c-0.033-0.01-0.068-0.014-0.102-0.021c-0.061-0.013-0.121-0.027-0.183-0.033c-0.033-0.003-0.066,0-0.098-0.001
		c-0.063-0.002-0.125-0.004-0.188,0.002c-0.036,0.004-0.071,0.013-0.106,0.019c-0.059,0.01-0.118,0.019-0.175,0.036
		c-0.036,0.011-0.07,0.028-0.106,0.041c-0.056,0.021-0.111,0.042-0.165,0.07c-0.033,0.018-0.064,0.041-0.096,0.061
		c-0.052,0.033-0.104,0.065-0.152,0.104c-0.006,0.005-0.014,0.008-0.02,0.014c-0.032,0.027-0.056,0.059-0.085,0.088
		c-0.03,0.03-0.063,0.055-0.091,0.088c-0.636,0.751-2.292,1.112-3.87,1.218c-0.062-0.003-0.123-0.01-0.187-0.006
		c-0.44,0.035-0.949,0.043-1.477,0.024c-0.065-0.002-0.129-0.005-0.194-0.009c-1.657-0.08-3.477-0.444-4.149-1.239
		c-0.029-0.034-0.063-0.06-0.095-0.091c-0.028-0.028-0.051-0.059-0.082-0.085c-0.007-0.005-0.014-0.009-0.021-0.014
		c-0.044-0.036-0.091-0.064-0.137-0.094c-0.038-0.025-0.075-0.052-0.115-0.073c-0.041-0.022-0.084-0.036-0.126-0.054
		c-0.049-0.02-0.097-0.042-0.147-0.057c-0.037-0.011-0.075-0.016-0.113-0.023c-0.057-0.012-0.113-0.025-0.171-0.031
		c-0.037-0.003-0.074-0.001-0.111-0.001c-0.059-0.001-0.117-0.004-0.176,0.002c-0.038,0.004-0.075,0.014-0.113,0.02
		c-0.057,0.01-0.114,0.019-0.17,0.035c-0.036,0.011-0.07,0.028-0.105,0.041c-0.056,0.021-0.112,0.042-0.166,0.07
		c-0.032,0.017-0.061,0.039-0.092,0.059c-0.053,0.033-0.107,0.066-0.156,0.107c-0.006,0.005-0.013,0.008-0.019,0.013
		c-0.029,0.025-0.052,0.055-0.079,0.081c-0.033,0.032-0.068,0.059-0.098,0.095c-0.916,1.083-3.959,1.37-5.82,1.223
		c-0.816-0.064-1.548,0.553-1.611,1.379c-0.064,0.825,0.551,1.546,1.376,1.612c0.148,0.012,0.582,0.042,1.186,0.042
		c1.537,0,4.16-0.209,6.016-1.371c1.471,0.922,3.41,1.244,4.926,1.334c0.013,0.001,0.025,0.006,0.039,0.007
		c0.148,0.012,0.582,0.042,1.187,0.042c1.536,0,4.16-0.209,6.015-1.371c1.855,1.162,4.479,1.371,6.016,1.371
		c0.604,0,1.037-0.029,1.186-0.042c0.03-0.002,0.057-0.012,0.087-0.016c1.51-0.093,3.422-0.418,4.879-1.331
		c1.472,0.923,3.413,1.245,4.929,1.334c0.012,0.001,0.023,0.005,0.035,0.006c0.149,0.012,0.584,0.042,1.188,0.042
		c1.536,0,4.159-0.209,6.014-1.371c1.854,1.162,4.477,1.371,6.014,1.371c0.604,0,1.039-0.029,1.188-0.042
		c0.825-0.065,1.441-0.788,1.376-1.614C58.513,54.052,57.801,53.427,56.964,53.502z"/>
	<path d="M53.348,12.898l1.527-1.527c0.586-0.585,0.586-1.536,0-2.121c-0.586-0.586-1.535-0.586-2.121,0l-1.527,1.527
		c-1.055-0.747-2.278-1.266-3.602-1.493V7.125c0-0.829-0.672-1.5-1.5-1.5s-1.5,0.671-1.5,1.5v2.159
		c-1.324,0.227-2.547,0.746-3.602,1.493L39.496,9.25c-0.586-0.586-1.535-0.586-2.121,0c-0.586,0.585-0.586,1.536,0,2.121
		l1.527,1.527c-0.747,1.055-1.266,2.278-1.494,3.602H35.25c-0.828,0-1.5,0.671-1.5,1.5s0.672,1.5,1.5,1.5h2.159
		c0.227,1.324,0.746,2.548,1.494,3.602l-1.527,1.527c-0.586,0.585-0.586,1.536,0,2.121c0.293,0.293,0.677,0.439,1.061,0.439
		s0.768-0.146,1.061-0.439l1.527-1.527c1.055,0.747,2.278,1.266,3.602,1.493v2.159c0,0.829,0.672,1.5,1.5,1.5s1.5-0.671,1.5-1.5
		v-2.159c1.324-0.227,2.547-0.746,3.602-1.493l1.527,1.527c0.293,0.293,0.677,0.439,1.061,0.439s0.768-0.146,1.061-0.439
		c0.586-0.585,0.586-1.536,0-2.121l-1.527-1.527c0.747-1.055,1.266-2.278,1.494-3.602H57c0.828,0,1.5-0.671,1.5-1.5
		s-0.672-1.5-1.5-1.5h-2.159C54.614,15.176,54.095,13.952,53.348,12.898z M40.271,18c0-3.228,2.626-5.854,5.854-5.854
		s5.854,2.626,5.854,5.854s-2.626,5.854-5.854,5.854S40.271,21.228,40.271,18z"/>
</g>
</svg>
