<?xml version="1.0" encoding="utf-8"?>
<!-- Generator: Adobe Illustrator 16.0.4, SVG Export Plug-In . SVG Version: 6.00 Build 0)  -->
<!DOCTYPE svg PUBLIC "-//W3C//DTD SVG 1.1//EN" "http://www.w3.org/Graphics/SVG/1.1/DTD/svg11.dtd">
<svg version="1.1" id="Layer_1" xmlns="http://www.w3.org/2000/svg" xmlns:xlink="http://www.w3.org/1999/xlink" x="0px" y="0px"
	 width="64px" height="64px" viewBox="0 0 64 64" enable-background="new 0 0 64 64" xml:space="preserve">
<path d="M48.475,47.143c-0.278-0.346-0.586-0.654-0.914-0.93c1.561-2.41,1.457-5.604-0.413-7.926
	c-0.44-0.548-0.95-1.009-1.507-1.381c1.694-2.43,1.633-5.733-0.286-8.117c-1.953-2.425-5.24-3.145-7.97-1.968
	c-0.25-0.736-0.626-1.441-1.14-2.079c-1.135-1.411-2.751-2.296-4.553-2.491c-1.802-0.194-3.57,0.324-4.98,1.459
	c-0.191,0.154-0.375,0.319-0.548,0.491c-0.636,0.637-1.101,1.376-1.431,2.161c-1.197-1.371-1.988-3.01-2.308-4.777
	c0.588,0.146,1.195,0.23,1.816,0.23c1.999,0,3.879-0.779,5.293-2.194c0.781-0.781,0.781-2.047,0-2.829
	c-0.781-0.78-2.047-0.781-2.828,0c-1.084,1.085-2.822,1.263-4.142,0.562c0.435-1.746,1.325-3.353,2.632-4.659
	c0.781-0.781,0.781-2.047,0-2.829s-2.047-0.781-2.828,0c-2.068,2.069-3.4,4.671-3.891,7.492c-3.03-1.061-6.535-0.392-8.952,2.025
	c-0.781,0.781-0.781,2.047,0,2.828c0.781,0.781,2.047,0.781,2.828,0c1.656-1.656,4.259-1.769,6.068-0.378
	c0.353,2.413,1.317,4.673,2.831,6.596c-0.557,0.236-1.09,0.55-1.584,0.948c-0.19,0.154-0.374,0.318-0.547,0.491
	c-2.451,2.453-2.66,6.339-0.484,9.044c0.514,0.638,1.125,1.15,1.789,1.551c-1.761,2.438-1.728,5.796,0.217,8.211
	c1.93,2.395,5.161,3.129,7.87,2.014c0.247,0.623,0.585,1.221,1.026,1.77c1.876,2.331,4.988,3.088,7.649,2.098
	c0.201,0.379,0.438,0.745,0.717,1.092c2.346,2.912,6.623,3.375,9.536,1.031c0.19-0.154,0.374-0.319,0.547-0.491
	C50.441,53.734,50.65,49.847,48.475,47.143z M37.305,30.281c0.1-0.099,0.204-0.194,0.316-0.284c0.02-0.015,0.04-0.028,0.06-0.042
	c1.679-1.301,4.096-1.025,5.434,0.636c1.262,1.569,1.113,3.817-0.277,5.208c-0.013,0.013-0.025,0.021-0.037,0.033
	c-0.089,0.087-0.181,0.172-0.279,0.251c-0.875,0.705-1.961,0.966-2.992,0.821c-0.338-0.047-0.669-0.136-0.986-0.27
	c-0.317-0.135-0.617-0.314-0.895-0.533c-0.224-0.178-0.434-0.379-0.62-0.611c-0.182-0.227-0.327-0.471-0.451-0.721
	c-0.229-0.461-0.354-0.953-0.389-1.452c-0.013-0.19-0.021-0.382-0.006-0.572C36.251,31.839,36.628,30.958,37.305,30.281z
	 M27.079,28.662c0.077-0.892,0.451-1.759,1.119-2.428c0.099-0.099,0.204-0.194,0.315-0.283c1.681-1.353,4.14-1.087,5.493,0.594
	c0.519,0.644,0.786,1.404,0.84,2.171c0.078,1.1-0.298,2.217-1.118,3.038c-0.078,0.079-0.164,0.152-0.251,0.225
	c-0.023,0.019-0.042,0.04-0.065,0.06c-0.02,0.016-0.04,0.027-0.059,0.041c-0.854,0.662-1.898,0.915-2.895,0.785
	c-0.21-0.027-0.417-0.069-0.619-0.129c-0.434-0.131-0.848-0.341-1.221-0.621c-0.254-0.191-0.491-0.412-0.699-0.671
	c-0.203-0.252-0.356-0.526-0.487-0.806C27.141,30.008,27.022,29.33,27.079,28.662z M20.878,37.109
	c-1.262-1.569-1.113-3.816,0.278-5.208c0.099-0.099,0.204-0.194,0.316-0.284c0.864-0.695,1.935-0.96,2.954-0.827
	c0.657,0.085,1.292,0.338,1.839,0.749c0.254,0.191,0.491,0.412,0.699,0.672c0.202,0.252,0.356,0.525,0.487,0.807
	c0.203,0.434,0.319,0.893,0.353,1.357c0.017,0.205,0.02,0.412,0.001,0.618c-0.076,0.892-0.45,1.759-1.117,2.425
	c-0.088,0.088-0.182,0.171-0.28,0.251c-0.013,0.011-0.024,0.022-0.036,0.034c-0.03,0.022-0.061,0.042-0.09,0.064
	c-1.024,0.779-2.319,0.979-3.476,0.635C22.073,38.185,21.396,37.75,20.878,37.109z M29.817,44.717
	c-0.069,0.907-0.445,1.787-1.123,2.465c-0.099,0.099-0.204,0.193-0.316,0.284c-0.103,0.083-0.209,0.158-0.317,0.229
	c-1.66,1.084-3.904,0.754-5.175-0.823c-1.263-1.57-1.114-3.817,0.276-5.209c0.088-0.087,0.182-0.17,0.28-0.25
	c0.013-0.011,0.024-0.023,0.036-0.034c0.876-0.705,1.963-0.966,2.993-0.82c0.193,0.026,0.386,0.064,0.571,0.121
	c0.47,0.139,0.914,0.368,1.309,0.682c0.224,0.178,0.434,0.379,0.62,0.611c0.183,0.227,0.327,0.471,0.451,0.72
	c0.162,0.327,0.268,0.669,0.331,1.017C29.817,44.044,29.844,44.381,29.817,44.717z M29.956,41.181
	c-0.182-0.228-0.326-0.47-0.45-0.72c-0.228-0.46-0.354-0.949-0.39-1.443c-0.014-0.194-0.02-0.389-0.006-0.581
	c0.069-0.907,0.446-1.786,1.124-2.464c0.077-0.078,0.162-0.15,0.248-0.223c0.023-0.021,0.044-0.043,0.068-0.061
	c0.028-0.024,0.059-0.043,0.089-0.064c0.859-0.655,1.905-0.898,2.903-0.758c0.197,0.027,0.392,0.068,0.584,0.124
	c0.464,0.14,0.904,0.368,1.297,0.679c0.223,0.179,0.433,0.38,0.619,0.613c0.183,0.227,0.326,0.469,0.451,0.719
	c0.16,0.324,0.266,0.664,0.33,1.009c0.064,0.337,0.091,0.677,0.064,1.016c-0.068,0.907-0.445,1.786-1.124,2.464
	c-0.001,0.002-0.003,0.004-0.004,0.005c-0.098,0.097-0.202,0.191-0.312,0.279c-0.112,0.091-0.228,0.173-0.346,0.248
	c-0.806,0.517-1.747,0.699-2.647,0.573c-0.34-0.048-0.674-0.137-0.993-0.274c-0.312-0.134-0.612-0.312-0.888-0.528
	C30.353,41.614,30.144,41.413,29.956,41.181z M38.716,48.477c-0.011,0.017-0.019,0.033-0.03,0.049
	c0.007,0.004,0.015,0.006,0.021,0.011c-0.063,0.732-0.336,1.44-0.799,2.042c-0.102,0.133-0.199,0.266-0.318,0.386
	c-0.1,0.1-0.206,0.194-0.316,0.284c-0.268,0.215-0.556,0.385-0.854,0.518c-1.581,0.711-3.502,0.303-4.64-1.111
	c-0.42-0.521-0.67-1.12-0.783-1.735c-0.229-1.235,0.132-2.544,1.061-3.474c0.003-0.002,0.008-0.005,0.01-0.008
	c0.096-0.096,0.198-0.188,0.308-0.275c0.102-0.084,0.208-0.16,0.316-0.23c0.801-0.523,1.737-0.714,2.637-0.596
	c0.354,0.045,0.699,0.137,1.031,0.277c0.284,0.123,0.555,0.281,0.808,0.473c0.254,0.189,0.491,0.411,0.699,0.67
	c0.202,0.251,0.354,0.523,0.486,0.804c0.01,0.02,0.016,0.04,0.024,0.06C38.642,47.213,38.76,47.848,38.716,48.477z M38.334,44.182
	c-0.138-0.299-0.235-0.607-0.295-0.924c-0.065-0.348-0.088-0.701-0.059-1.053c0.077-0.893,0.451-1.758,1.117-2.426
	c0.012-0.012,0.026-0.021,0.037-0.033c0.089-0.086,0.182-0.172,0.28-0.251c0.112-0.09,0.229-0.171,0.346-0.247
	c1.11-0.711,2.473-0.796,3.633-0.305c0.572,0.244,1.097,0.627,1.514,1.146c1.142,1.416,1.12,3.381,0.08,4.775
	c-0.11,0.148-0.223,0.298-0.357,0.432c-0.099,0.1-0.204,0.193-0.316,0.284c-0.247,0.199-0.513,0.358-0.788,0.489
	c-0.687,0.322-1.438,0.434-2.166,0.338c-0.002-0.008-0.004-0.018-0.008-0.026c-0.017,0.007-0.033,0.011-0.052,0.019
	c-0.625-0.092-1.228-0.335-1.753-0.723c-0.01-0.006-0.017-0.012-0.026-0.02c-0.254-0.19-0.491-0.412-0.699-0.67
	C38.619,44.734,38.465,44.461,38.334,44.182z M45.957,54.154c-0.1,0.099-0.205,0.193-0.317,0.283
	c-1.68,1.352-4.139,1.087-5.491-0.594c-0.217-0.27-0.377-0.562-0.512-0.863c-0.265-0.594-0.383-1.229-0.339-1.857
	c0.053-0.734,0.316-1.447,0.77-2.057c0.01,0.004,0.02,0.006,0.028,0.008c0.003-0.019,0.009-0.037,0.012-0.055
	c0.101-0.132,0.199-0.266,0.318-0.384c0.099-0.101,0.204-0.194,0.316-0.284c0.247-0.199,0.512-0.359,0.787-0.488
	c0.023,0.001,0.045,0.002,0.067,0.004c-0.001-0.012-0.002-0.022-0.003-0.033c0.688-0.309,1.438-0.406,2.161-0.301
	c0.626,0.092,1.229,0.334,1.753,0.722c0.265,0.194,0.511,0.423,0.727,0.69C47.496,50.515,47.349,52.762,45.957,54.154z"/>
</svg>
