<?xml version="1.0" encoding="utf-8"?>
<!-- Generator: Adobe Illustrator 15.0.0, SVG Export Plug-In . SVG Version: 6.00 Build 0)  -->
<!DOCTYPE svg PUBLIC "-//W3C//DTD SVG 1.1//EN" "http://www.w3.org/Graphics/SVG/1.1/DTD/svg11.dtd">
<svg version="1.1" id="Layer_1" xmlns="http://www.w3.org/2000/svg" xmlns:xlink="http://www.w3.org/1999/xlink" x="0px" y="0px"
	 width="26px" height="26px" viewBox="0 0 26 26" enable-background="new 0 0 26 26" xml:space="preserve">
<path d="M15.473,16.103c0.643-0.063,1.453-0.287,2.191-0.911c1.225-1.037,1.795-2.799,1.695-5.237
	c-0.023-0.592-0.52-1.053-1.116-1.028c-0.593,0.024-1.053,0.523-1.029,1.116c0.07,1.704-0.248,2.914-0.92,3.497
	c-0.264,0.229-0.559,0.341-0.821,0.393c-0.076-4.077-0.525-8.228-0.525-8.228c-0.354-1.009-1.317-1.353-1.812-1.353h-0.372
	c-0.494,0-1.762,0.573-1.812,1.353c0,0-0.41,5.089-0.513,8.207c-0.235-0.058-0.488-0.166-0.717-0.358
	c-0.683-0.579-1.007-1.793-0.937-3.511C8.81,9.449,8.349,8.95,7.756,8.926C7.162,8.901,6.665,9.362,6.641,9.954
	c-0.1,2.438,0.47,4.2,1.694,5.237c0.705,0.597,1.475,0.826,2.102,0.9c0.098,2.409,0.516,4.641,0.516,4.641
	c0,0.146,0.039,0.283,0.101,0.404c-1.862,0.164-3.022,0.512-3.022,0.512h9.938c-1.093-0.268-2.141-0.425-3.123-0.51
	c0.063-0.123,0.102-0.261,0.102-0.406C14.947,20.732,15.397,19.67,15.473,16.103z"/>
</svg>
